<svg xmlns="http://www.w3.org/2000/svg" width="1024" height="1024" viewBox="0 0 1024 1024"><path fill="#fff" d="M0 0h1024v1024H0z"/><path fill="#100f26" d="M419.23 494.853c3.638 18.484 6.857 37.049 10.643 55.55a3658 3658 0 0 0 29.459 129.878 1346 1346 0 0 0 11.221 43.459c1.479 5.543 3.584 15.165 5.477 20.035 1.446-18.151 3.71-36.655 5.599-54.778l5.82-58.217c2.113-19.579 4.945-40.313 5.302-59.921.097-5.334-15.234-23.701-12.647-30.535.575-1.52 3.058-3.913 4.654-4.068 17.131-1.655 34.937-.992 52.182-.987 22.452-.205 1.585 27.841-3.544 36.753.061 9.092 2.915 31.058 3.919 40.901l7.971 78.601c1.757 15.963 4.954 38.479 5.48 53.876a3769 3769 0 0 0 30.668-123.222c9.865-40.957 20.417-85.656 26.427-127.379 20.522 35.563 39.749 73.899 60.042 109.843a2477 2477 0 0 0-42.282 24.92c10.614 6.611 28.572 16.589 39.739 22.115l-33.252 74.307c-1.658 3.729-11.507 24.908-11.352 26.573 1.57-2.086 2.502-4.286 3.927-6.421 5.957-8.926 11.356-18.242 16.948-27.408a6215 6215 0 0 0 43.554-72.364c-7.035-4.17-17.781-9.855-24.18-14.287 11.764-5.933 23.105-12.645 34.898-18.436a7249 7249 0 0 1-42.649-80.071c18.058 6.212 36.208 13.35 54.251 19.557 47.532 16.35 84.701 27.272 101.452 80.253.944 3.131 1.687 6.304 2.467 9.466 12.234 49.777 18.05 100.951 21.952 151.982 1.266 16.551 3.002 34.227 3.187 50.752l-649.566.095c1.142-20.17 4.291-44.815 6.655-64.996a1461 1461 0 0 1 17.403-116.629c2.833-14.097 5.557-29.997 11.485-42.946 6.829-14.918 18.856-29.647 32.222-39.168 17.395-12.39 39.773-19.915 59.72-27.745a5717 5717 0 0 1 58.379-22.633c-2.512 5.678-7.909 14.532-10.956 20.456-10.705 20.814-22.974 41.1-33.807 61.825 7.925 4.163 31.58 16.128 39.503 18.34-5.639 3.907-19.198 10.99-25.867 14.998 5.923 10.717 12.931 20.874 19.299 31.341l47.677 78.492c-1.451-4.515-4.052-9.713-6.033-14.105l-9.239-20.72a6350 6350 0 0 0-32.389-70.366c12.858-7.602 26.41-14.375 38.87-22.043-11.719-8.219-30.344-17.475-43.623-25.956a3105 3105 0 0 1 45.481-79.194c3.534-5.984 13.97-25.145 17.453-29.773"/><path fill="#100f26" d="M508.734 116.719c10.717-.705 24.764 1.092 35.254 2.958 36.725 6.532 71.034 27.184 91.857 58.609 28.976 43.73 22.649 77.744 13.406 125.106 3.852 6.923 6.543 12.898 7.616 20.948 3.4 25.522-5.916 48.884-21.204 68.888-3.262 4.268-10.803 11.02-12.866 14.885-2.253 4.218-4.537 12.652-6.787 17.493-5.755 12.388-13.292 26.602-21.672 37.413-19.293 24.889-41.052 46.505-73.31 51.452-18.17.787-32.509-2.734-47.844-13.558-22.636-15.975-43.558-41.866-56.543-66.385-4.669-8.815-7.629-18.308-12.158-26.666-3.34-4.614-7.888-9.001-11.502-13.331-18.131-21.722-31.742-63.972-14.227-89.557-2.816-15.844-6.165-34.609-7.079-50.508a125.6 125.6 0 0 1 32.602-92.129c27.149-30.139 64.757-43.688 104.457-45.618"/></svg>