<?xml version="1.0" encoding="utf-8" ?><svg xmlns="http://www.w3.org/2000/svg" xmlns:xlink="http://www.w3.org/1999/xlink" width="1024" height="1024" viewBox="0 0 1024 1024"><path fill="white" d="M0 0L1024 0L1024 1024L0 1024L0 0Z"/><path fill="#100F26" d="M419.23 494.853C422.868 513.337 426.087 531.902 429.873 550.403C438.904 593.871 448.725 637.171 459.332 680.281C462.831 694.829 466.571 709.317 470.553 723.74C472.032 729.283 474.137 738.905 476.03 743.775C477.476 725.624 479.74 707.12 481.629 688.997L487.449 630.78C489.562 611.201 492.394 590.467 492.751 570.859C492.848 565.525 477.517 547.158 480.104 540.324C480.679 538.804 483.162 536.411 484.758 536.256C501.889 534.601 519.695 535.264 536.94 535.269C559.392 535.064 538.525 563.11 533.396 572.022C533.457 581.114 536.311 603.08 537.315 612.923L545.286 691.524C547.043 707.487 550.24 730.003 550.766 745.4C561.68 704.501 571.904 663.421 581.434 622.178C591.299 581.221 601.851 536.522 607.861 494.799C628.383 530.362 647.61 568.698 667.903 604.642C653.727 612.809 639.632 621.116 625.621 629.562C636.235 636.173 654.193 646.151 665.36 651.677L632.108 725.984C630.45 729.713 620.601 750.892 620.756 752.557C622.326 750.471 623.258 748.271 624.683 746.136C630.64 737.21 636.039 727.894 641.631 718.728C656.313 694.705 670.831 670.584 685.185 646.364C678.15 642.194 667.404 636.509 661.005 632.077C672.769 626.144 684.11 619.432 695.903 613.641C681.52 587.04 667.303 560.349 653.254 533.57C671.312 539.782 689.462 546.92 707.505 553.127C755.037 569.477 792.206 580.399 808.957 633.38C809.901 636.511 810.644 639.684 811.424 642.846C823.658 692.623 829.474 743.797 833.376 794.828C834.642 811.379 836.378 829.055 836.563 845.58L186.997 845.675C188.139 825.505 191.288 800.86 193.652 780.679C197.881 741.584 203.686 702.676 211.055 664.05C213.888 649.953 216.612 634.053 222.54 621.104C229.369 606.186 241.396 591.457 254.762 581.936C272.157 569.546 294.535 562.021 314.482 554.191C333.9 546.54 353.36 538.996 372.861 531.558C370.349 537.236 364.952 546.09 361.905 552.014C351.2 572.828 338.931 593.114 328.098 613.839C336.023 618.002 359.678 629.967 367.601 632.179C361.962 636.086 348.403 643.169 341.734 647.177C347.657 657.894 354.665 668.051 361.033 678.518L408.71 757.01C407.259 752.495 404.658 747.297 402.677 742.905L393.438 722.185C382.785 698.664 371.988 675.208 361.049 651.819C373.907 644.217 387.459 637.444 399.919 629.776C388.2 621.557 369.575 612.301 356.296 603.82C371.067 577.201 386.229 550.8 401.777 524.626C405.311 518.642 415.747 499.481 419.23 494.853Z"/><path fill="#100F26" d="M508.734 116.719C519.451 116.014 533.498 117.811 543.988 119.677C580.713 126.209 615.022 146.861 635.845 178.286C664.821 222.016 658.494 256.03 649.251 303.392C653.103 310.315 655.794 316.29 656.867 324.34C660.267 349.862 650.951 373.224 635.663 393.228C632.401 397.496 624.86 404.248 622.797 408.113C620.544 412.331 618.26 420.765 616.01 425.606C610.255 437.994 602.718 452.208 594.338 463.019C575.045 487.908 553.286 509.524 521.028 514.471C502.858 515.258 488.519 511.737 473.184 500.913C450.548 484.938 429.626 459.047 416.641 434.528C411.972 425.713 409.012 416.22 404.483 407.862C401.143 403.248 396.595 398.861 392.981 394.531C374.85 372.809 361.239 330.559 378.754 304.974C375.938 289.13 372.589 270.365 371.675 254.466C369.66 220.615 381.419 187.387 404.277 162.337C431.426 132.198 469.034 118.649 508.734 116.719Z"/></svg>